# xmcd CD database file
#
# Track frame offsets:
#	150
#	20905
#	54938
#	82658
#	102949
#	116701
#	135797
#	156911
#	185339
#	210407
#
# Disc length: 3188 seconds
#
# Revision: 0
# Processed by: cddbd v1.5.2PL0 Copyright (c) Steve Scherf et al.
# Submitted via: CDex 1.70beta2
#
DISCID=750c720a
DTITLE=Various Artist - Pura Salsa
DYEAR=1900
DGENRE=Salsa
TTITLE0=Juancito Martinez - Juan Sonmontuno
TTITLE1=Allegre All Stars - Manteca
TTITLE2=Willie Colon - Aguanile
TTITLE3=Juancito Martinez - Procuro olvidarte
TTITLE4=Cachao - Descarza cubana
TTITLE5=Juancito Martinez - Angelitos negros
TTITLE6=Juancito Martinez - Solo importas tu
TTITLE7=Johnny Colon - Merecumbe
TTITLE8=Juancito Martinez - Me cuesta creer
TTITLE9=Juancito Martinez - Amor en silencio
EXTD=
EXTT0=
EXTT1=
EXTT2=
EXTT3=
EXTT4=
EXTT5=
EXTT6=
EXTT7=
EXTT8=
EXTT9=
PLAYORDER=
